<svg id="Capa_1" enable-background="new 0 0 512 512" height="512" viewBox="0 0 512 512" width="512" xmlns="http://www.w3.org/2000/svg"><g><path d="m135 60h-30-30c-8.291 0-15 6.709-15 15v60c0 8.291 6.709 15 15 15h30 30c8.291 0 15-6.709 15-15v-60c0-8.291-6.709-15-15-15z" fill="#575f64"/><path d="m150 135v-60c0-8.291-6.709-15-15-15h-30v90h30c8.291 0 15-6.709 15-15z" fill="#32393f"/><path d="m165 120h-60-60c-8.291 0-15 6.709-15 15v60c0 8.291 6.709 15 15 15h60 60c8.291 0 15-6.709 15-15v-60c0-8.291-6.709-15-15-15z" fill="#f0f7ff"/><path d="m180 195v-60c0-8.291-6.709-15-15-15h-60v90h60c8.291 0 15-6.709 15-15z" fill="#deecf1"/><path d="m210 300v-45c0-39.619-27.909-73.392-30-75-.941 0-37.974 0-75 .002-37.5.002-74.995.005-75 .009-2.238 1.741-30 35.457-30 74.989v242c0 8.291 6.709 15 15 15h90 90c8.291 0 15-6.709 15-15v-76l-15-30v-61z" fill="#fed843"/><path d="m210 497v-76l-15-30v-61l15-30v-45c0-39.619-27.909-73.392-30-75-.941 0-37.974 0-75 .002v331.998h90c8.291 0 15-6.709 15-15z" fill="#fabe2c"/><path d="m105 300c-8.291 0-15 6.709-15 15v91c0 8.291 6.709 15 15 15h105v-121z" fill="#f0f7ff"/><path d="m105 300h105v121h-105z" fill="#deecf1"/></g><g><path d="m407 241c-32.704 0-59.382-26.304-59.989-58.866-9.131-3.78-19.131-8.938-30.168-14.632-27.207-14.035-61.067-31.502-91.843-31.502-8.284 0-15-6.716-15-15s6.716-15 15-15c30.776 0 64.636-17.467 91.843-31.502 11.037-5.694 21.037-10.852 30.168-14.632.596-32.554 27.164-59.866 59.989-59.866 30.655 0 55.103 23.612 59.33 51.946 27.365 11.592 45.67 38.587 45.67 69.054 0 30.472-18.312 57.47-45.683 69.06-4.381 28.8-29.312 50.94-59.317 50.94z" fill="#fabe2c"/></g></svg>
