<svg id="flat" height="512" viewBox="0 0 512 512" width="512" xmlns="http://www.w3.org/2000/svg"><path d="m488 24v464h-464v-456l24-8 40 24 64-24h32l48 24 48-24h32l48 16 32-16 32 16z" fill="#db8638"/><path d="m488 152v336h-464v-344h24l24 24 40-16 24 16 48-32h16l32 32h24l16-16h16l16-16h72l24 16z" fill="#c47220"/><path d="m488 320v168h-464v-176l24-24h32l80 32 24-24h24l16 16h64l40-16h40l72 24z" fill="#b66514"/><path d="m64 400 24-24h16l16 16h24v24l-40 32h-16z" fill="#a2590d"/><path d="m184 384v-32l16-16 24 24z" fill="#a2590d"/><path d="m216 408 16 48 64-24-16-32z" fill="#a2590d"/><path d="m304 368 24 24 24-16v-8l-40-16z" fill="#a2590d"/><path d="m408 416 48-24v48l-24 8z" fill="#a2590d"/><g fill="#db8638"><path d="m72 328h16v16h-16z"/><path d="m136 448h16v16h-16z"/><path d="m176 432h16v16h-16z"/><path d="m248 352h16v16h-16z"/><path d="m352 416h16v16h-16z"/><path d="m392 336h16v16h-16z"/><path d="m424 352h16v16h-16z"/><path d="m328 440h16v16h-16z"/><path d="m64 240h24v16h-24z"/><path d="m96 192h24v16h-24z"/></g><path d="m48 104h24v16h-24z" fill="#f7a156"/><path d="m280 200h24v16h-24z" fill="#db8638"/><path d="m304 232h24v16h-24z" fill="#db8638"/><path d="m384 192h24v16h-24z" fill="#db8638"/><path d="m400 240h24v16h-24z" fill="#db8638"/><path d="m128 240h16v16h-16z" fill="#db8638"/><path d="m216 248h16v16h-16z" fill="#db8638"/><path d="m344 88h16v16h-16z" fill="#f7a156"/><path d="m424 64h16v16h-16z" fill="#f7a156"/><path d="m432 112h16v16h-16z" fill="#f7a156"/><path d="m208 72h16v16h-16z" fill="#f7a156"/><path d="m224 112h16v16h-16z" fill="#f7a156"/><path d="m440 256h16v16h-16z" fill="#db8638"/><path d="m168 200h24v16h-24z" fill="#db8638"/><path d="m304 64h24v16h-24z" fill="#f7a156"/><path d="m104.804 70.797h16v16h-16z" fill="#f7a156"/></svg>