<svg height="100%" viewBox="-12 0 511 511.99923" width="100%" xmlns="http://www.w3.org/2000/svg"><path d="m244.011719 225.8125c18.859375 43.558594 102.820312 84.730469 125.070312 15.609375 30.234375-93.917969-89.480469-93.945313-125.070312-93.945313-35.585938 0-155.300781.027344-125.070313 93.945313 22.253906 69.125 106.210938 27.949219 125.070313-15.609375zm0 0" fill="#e1b89a"/><path d="m168.710938 155.324219c-36.273438 10.101562-66.792969 33.214843-49.769532 86.097656 16.515625 51.296875 67.007813 41.84375 99.664063 15.757813-50.539063-4.863282-68.164063-64.175782-49.894531-101.855469zm0 0" fill="#d2996f"/><path d="m145.753906 217.402344c-3.734375-1.546875-8.015625.226562-9.5625 3.960937s.226563 8.015625 3.960938 9.5625 8.015625-.226562 9.5625-3.960937-.226563-8.015625-3.960938-9.5625zm0 0" fill="#e1b89a"/><path d="m185.453125 222.523438c-3.734375-1.546876-8.015625.226562-9.5625 3.960937s.226563 8.015625 3.960937 9.5625c3.734376 1.546875 8.015626-.226563 9.5625-3.960937 1.546876-3.734376-.226562-8.015626-3.960937-9.5625zm0 0" fill="#d2996f"/><path d="m166.261719 250.648438c-.644531-3.992188-4.40625-6.699219-8.394531-6.054688-3.988282.648438-6.699219 4.40625-6.050782 8.398438.644532 3.988281 4.40625 6.699218 8.394532 6.050781 3.988281-.648438 6.699218-4.40625 6.050781-8.394531zm0 0" fill="#e1b89a"/><g fill="#d2996f"><path d="m350.25 218.988281c-2.855469-2.855469-7.488281-2.855469-10.347656 0-2.859375 2.859375-2.859375 7.492188 0 10.351563 2.859375 2.855468 7.492187 2.855468 10.347656 0 2.859375-2.859375 2.859375-7.492188 0-10.351563zm0 0"/><path d="m310.550781 224.109375c-2.859375-2.855469-7.492187-2.855469-10.347656 0-2.859375 2.859375-2.859375 7.492187 0 10.351563 2.855469 2.859374 7.488281 2.859374 10.347656 0 2.859375-2.859376 2.859375-7.492188 0-10.351563zm0 0"/><path d="m330.679688 244.726562c-3.933594-.929687-7.875 1.503907-8.804688 5.4375-.929688 3.933594 1.507812 7.875 5.441406 8.804688s7.875-1.507812 8.800782-5.441406c.929687-3.929688-1.503907-7.875-5.4375-8.800782zm0 0"/></g><path d="m296.996094 187.253906-28.359375 28.359375c-13.597657 13.597657-35.648438 13.597657-49.25 0l-28.359375-28.359375c-9.800782-9.800781-6.210938-26.453125 6.757812-31.347656 29.792969-11.238281 62.660156-11.238281 92.453125 0 12.96875 4.894531 16.558594 21.546875 6.757813 31.347656zm0 0" fill="#4e5660"/><path d="m229.53125 148.3125c-10.78125 1.199219-21.449219 3.710938-31.746094 7.59375-12.96875 4.894531-16.558594 21.546875-6.757812 31.347656l28.363281 28.359375c13.597656 13.597657 35.648437 13.597657 49.246094 0l.105469-.105469c-33.449219-3.8125-52.335938-47-39.210938-67.195312zm0 0" fill="#383c43"/><path d="m250.355469 311.5625c-3.738281 2.882812-8.949219 2.882812-12.6875 0-13.734375-10.59375-33.828125-4.007812-38.632813 12.65625l-31.09375 107.871094c-8.746094 30.339844 9.933594 61.761718 40.761719 68.578125 23.257813 5.144531 47.359375 5.144531 70.621094 0 30.828125-6.8125 49.507812-38.238281 40.761719-68.578125l-31.097657-107.871094c-4.804687-16.664062-24.894531-23.25-38.632812-12.65625zm0 0" fill="#eda1ab"/><path d="m208.703125 500.667969c23.257813 5.144531 47.359375 5.144531 70.621094 0 17.222656-3.804688 30.648437-15.300781 37.625-29.992188-128 32.09375-118.261719-107.453125-97.546875-164.015625-9.167969 1.25-17.496094 7.601563-20.367188 17.5625l-31.09375 107.867188c-8.746094 30.339844 9.929688 61.765625 40.761719 68.578125zm0 0" fill="#e26e7e"/><path d="m244.011719 466.132812c-4.140625 0-7.5-3.355468-7.5-7.5v-110.929687c0-4.140625 3.359375-7.5 7.5-7.5 4.144531 0 7.5 3.359375 7.5 7.5v110.929687c0 4.144532-3.355469 7.5-7.5 7.5zm0 0" fill="#e26e7e"/><path d="m66.632812 16.535156c-38.109374 39.027344 39.601563 112.21875 1.421876 154.714844-38.179688 42.492188-68.980469-45.882812-57.800782-73.316406v-.019532c14.164063-30.273437 33.308594-57.75 56.378906-81.378906zm0 0" fill="#e1b89a"/><path d="m69.621094 99.117188c-10.460938-30.683594-23.496094-61.578126-2.988282-82.582032 17.460938-17.457031 36.09375-6.703125 49.839844 7.710938 5.113282 5.359375 4.777344 13.855468-.726562 18.8125-18.007813 16.21875-33.675782 35.089844-46.144532 55.996094" fill="#ffd4be"/><path d="m421.390625 16.535156c38.109375 39.027344-39.601563 112.21875-1.421875 154.714844 38.179688 42.492188 68.984375-45.882812 57.800781-73.316406v-.019532c-14.160156-30.273437-33.304687-57.75-56.378906-81.378906zm0 0" fill="#e1b89a"/><path d="m418.402344 99.117188c10.464844-30.683594 23.496094-61.578126 2.988281-82.582032-17.457031-17.457031-36.09375-6.703125-49.839844 7.710938-5.109375 5.359375-4.773437 13.855468.730469 18.8125 18.007812 16.21875 33.675781 35.089844 46.140625 55.996094" fill="#ffd4be"/><path d="m120.765625 48.628906c4.183594-3.765625 6.605469-8.9375 6.820313-14.554687.214843-5.609375-1.804688-10.9375-5.683594-15.003907-11.933594-12.515624-23.851563-18.929687-35.417969-19.06640575-9.144531-.12890625-17.59375 3.66796875-25.152344 11.23046875-.011719.007813-.019531.019531-.03125.03125s-.023437.019531-.03125.03125c-23.914062 24.484375-43.359375 52.558594-57.808593 83.441406-.101563.222657-.195313.449219-.277344.683594-7.542969 19.191406 1.539062 59.378906 18.136718 79.976563 2.601563 3.226562 7.324219 3.734374 10.546876 1.132812 3.226562-2.597656 3.734374-7.320312 1.136718-10.542969-14.222656-17.652343-21.070312-52.230469-15.8125-65.195312 8.59375-18.316407 19.039063-35.59375 31.21875-51.644531.996094 14.574218 6.394532 30.113281 11.695313 45.382812 9.574219 27.578125 18.621093 53.621094 2.371093 71.707031-2.496093 2.777344-4.984374 4.941407-7.390624 6.433594-3.523438 2.175781-4.613282 6.796875-2.4375 10.320313 1.417968 2.296874 3.875 3.558593 6.386718 3.558593 1.347656 0 2.710938-.363281 3.9375-1.121093 3.625-2.238282 7.210938-5.324219 10.664063-9.164063 19.5625-21.777344 12.945312-49.988281 4.1875-76.289063 11.660156-18.90625 26.089843-36.167968 42.941406-51.347656zm-49.117187 33.359375c-8.058594-23.71875-13.824219-45.636719.308593-60.164062 4.65625-4.648438 9.335938-6.851563 14.351563-6.820313 7.269531.085938 15.824218 5.070313 24.738281 14.417969 1.054687 1.109375 1.605469 2.558594 1.550781 4.085937-.058594 1.527344-.722656 2.941407-1.871094 3.976563-14.867187 13.386719-27.957031 28.3125-39.078124 44.503906zm172.800781 57.988281c-.289063 0-.582031 0-.875 0-27.289063 0-98.304688.203126-125.921875 38.109376-12.414063 17.039062-14.382813 39.121093-5.847656 65.632812 8.359374 25.96875 26.1875 40.910156 50.199218 42.078125 29.0625 1.4375 64.171875-18.441406 82.007813-44.617187 17.238281 25.296874 50.605469 44.691406 79.058593 44.691406.988282 0 1.976563-.023438 2.949219-.074219 24.015625-1.164063 41.84375-16.109375 50.203125-42.078125 8.535156-26.507812 6.566406-48.59375-5.847656-65.632812-27.621094-37.90625-98.632812-38.109376-125.925781-38.109376zm-37.902344 116.71875c-14.539063 9.621094-30.515625 14.757813-43.8125 14.121094-17.828125-.867187-30.160156-11.53125-36.652344-31.691406-6.984375-21.695312-5.738281-39.257812 3.695313-52.207031 10.714844-14.710938 31.019531-22.640625 52.003906-26.921875-1.5 2.484375-2.609375 5.230468-3.242188 8.164062-1.914062 8.863282.773438 17.984375 7.1875 24.398438l28.359376 28.355468c5.148437 5.152344 11.394531 8.800782 18.207031 10.753907-6.019531 9.125-15.007813 17.925781-25.746094 25.027343zm37.464844-38.382812c-7.296875 0-14.160157-2.84375-19.320313-8.003906l-28.359375-28.355469c-2.832031-2.835937-3.976562-6.710937-3.128906-10.632813.84375-3.917968 3.480469-6.980468 7.230469-8.394531 13.941406-5.257812 28.582031-7.90625 43.230468-7.949219h.703126c14.644531.042969 29.285156 2.691407 43.226562 7.949219 3.75 1.414063 6.386719 4.476563 7.234375 8.394531.84375 3.921876-.296875 7.796876-3.132813 10.628907l-28.363281 28.359375c-5.160156 5.160156-12.019531 8.003906-19.320312 8.003906zm117.933593 20.8125c-6.492187 20.160156-18.824218 30.824219-36.652343 31.691406-13.300781.644532-29.273438-4.5-43.816407-14.121094-10.734374-7.101562-19.726562-15.902343-25.742187-25.027343 6.8125-1.953125 13.058594-5.601563 18.207031-10.75l28.359375-28.359375c6.410157-6.414063 9.097657-15.535156 7.1875-24.398438-.632812-2.933594-1.742187-5.679687-3.246093-8.164062 20.984374 4.28125 41.289062 12.210937 52.007812 26.921875 9.433594 12.949219 10.675781 30.511719 3.695312 52.207031zm122.90625-143.683594c-.082031-.238281-.179687-.472656-.289062-.703125-14.445312-30.882812-33.894531-58.957031-57.804688-83.441406-.007812-.011719-.019531-.019531-.03125-.027344-.011718-.011719-.019531-.023437-.03125-.035156-7.558593-7.5625-16-11.378906-25.152343-11.23046875-11.566407.13671875-23.484375 6.55078175-35.417969 19.06640575-3.878906 4.066407-5.894531 9.398438-5.683594 15.003907.214844 5.617187 2.636719 10.789062 6.820313 14.558593 16.851562 15.175782 31.28125 32.4375 42.941406 51.34375-8.757813 26.300782-15.375 54.511719 4.191406 76.289063 9.523438 10.597656 18.527344 13.878906 26.03125 13.878906 6.332031 0 11.597657-2.339843 15.195313-4.59375 24.242187-15.183593 38.214844-67.214843 29.230468-90.109375zm-107.550781-57.957031c-1.148437-1.035156-1.8125-2.445313-1.871093-3.976563-.058594-1.527343.492187-2.976562 1.550781-4.085937 8.914062-9.347656 17.46875-14.332031 24.738281-14.417969 5.027344-.042968 9.683594 2.164063 14.328125 6.800782 14.160156 14.53125 8.390625 36.457031.328125 60.183593-11.117188-16.191406-24.210938-31.117187-39.074219-44.503906zm91.128907 101.109375c-4.796876 16.101562-12.757813 29.226562-20.773438 34.246094-2.832031 1.769531-10.351562 6.480468-22.105469-6.601563-16.25-18.085937-7.203125-44.132812 2.371094-71.707031 5.300781-15.269531 10.695313-30.808594 11.695313-45.386719 12.175781 16.054688 22.625 33.328125 31.21875 51.644531 3.054687 7.539063 2.089843 22.722657-2.40625 37.804688zm-172.234376 183.550781c-2.941406-10.21875-10.734374-18.292969-20.835937-21.601562-10.105469-3.316407-21.164063-1.414063-29.582031 5.078125-1.039063.800781-2.492188.800781-3.527344 0-8.421875-6.492188-19.480469-8.394532-29.582031-5.078125-10.105469 3.308593-17.894531 11.382812-20.839844 21.601562l-31.09375 107.871094c-4.8125 16.683594-2.574219 34.089844 6.296875 49.019531 8.875 14.925782 23.097656 25.210938 40.050781 28.957032 12.082031 2.671874 24.503907 4.007812 36.929688 4.007812 12.421875 0 24.847656-1.335938 36.929687-4.007812 10.746094-2.375 20.679688-7.550782 28.722656-14.972657 3.042969-2.808593 3.234376-7.554687.425782-10.597656-2.808594-3.046875-7.554688-3.234375-10.597656-.425781-6.09375 5.621094-13.628907 9.546875-21.789063 11.347656-22.042969 4.875-45.34375 4.875-67.382813 0-12.867187-2.84375-23.660156-10.648438-30.394531-21.976562-6.734375-11.328126-8.429687-24.539063-4.78125-37.199219l31.097657-107.871094c1.589843-5.519531 5.632812-9.710937 11.09375-11.5 5.460937-1.792969 11.199218-.804687 15.75 2.703125 6.433593 4.960938 15.417968 4.960938 21.847656 0 4.550781-3.507812 10.292968-4.496094 15.753906-2.703125 5.460938 1.789063 9.503906 5.980469 11.09375 11.5l31.09375 107.871094c1.9375 6.71875 2.371094 13.585937 1.292969 20.414062-.648438 4.089844 2.144531 7.933594 6.238281 8.578125 4.085938.648438 7.929688-2.144531 8.578125-6.238281 1.425781-9.011719.855469-18.0625-1.695313-26.90625zm0 0"/></svg>