<svg id="Capa_1" enable-background="new 0 0 512 512" height="512" viewBox="0 0 512 512" width="512" xmlns="http://www.w3.org/2000/svg"><g><path d="m183.22 497.032h272.621c13.514 0 24.469-10.955 24.469-24.469 0-13.514-10.955-24.469-24.469-24.469h-24.293c-10.41 0-18.848-8.439-18.848-18.848 0-10.41-8.439-18.848-18.848-18.848h-210.632z" fill="#a6e7f0"/><path d="m480.306 472.564c0 13.513-10.953 24.466-24.466 24.466h-272.62v-19.356h251.756c13.513 0 24.466-10.953 24.466-24.466 0-1.683-.165-3.324-.495-4.914 5.513.702 10.457 3.231 14.195 6.968 4.428 4.428 7.164 10.55 7.164 17.302z" fill="#6bd9e7"/><g><path d="m508.32 160.55c4.883 4.883 4.909 12.793.057 17.707l-310.68 314.733c-2.378 2.576-5.725 4.041-9.231 4.041h-60.966c-3.275 0-6.421-1.279-8.767-3.564l-114.936-111.963c-5.017-4.887-5.069-12.932-.117-17.884l344.972-344.973c4.906-4.906 12.859-4.906 17.765 0z" fill="#deecf1"/><path d="m508.375 178.255-310.682 314.739c-2.374 2.57-5.719 4.036-9.229 4.036h-31.548c.888-.588 1.714-1.29 2.447-2.085l333.032-337.368c2.498-2.529 3.789-5.791 3.871-9.085l12.058 12.058c4.883 4.883 4.903 12.791.051 17.705z" fill="#cbe5e8"/><path d="m298.85 68.014 160.046 160.046c4.982 4.982 4.982 13.06 0 18.042l-192.782 192.783c-4.982 4.982-13.06 4.982-18.042 0l-160.047-160.047c-4.982-4.982-4.982-13.06 0-18.042l192.783-192.782c4.982-4.982 13.06-4.982 18.042 0z" fill="#8379c1"/><path d="m458.895 246.1-192.778 192.789c-4.47 4.46-11.407 4.924-16.394 1.394-.578-.413-1.135-.878-1.652-1.394l-16.796-16.796 209.461-212.187 18.159 18.159c.052.052.103.114.155.165 4.831 4.986 4.78 12.946-.155 17.87z" fill="#6e61b6"/></g></g></svg>