<svg xmlns="http://www.w3.org/2000/svg" viewBox="0 0 512 512" width="512" height="512">
	<style>
		tspan { white-space:pre }
		.shp0 { fill: #80b9ed } 
		.shp1 { fill: #2e58ff } 
	</style>
	<path id="Layer" class="shp0" d="M255.62 495.19C123.14 495.19 16.06 388.1 16.06 255.62C16.06 123.14 123.14 16.06 255.62 16.06C388.1 16.06 495.19 123.14 495.19 255.62C495.19 388.1 388.1 495.19 255.62 495.19Z" />
	<g id="Layer">
		<path id="Layer" fill-rule="evenodd" class="shp1" d="M436.34 436.34C336.45 536.22 174.78 536.21 74.91 436.34C-24.98 336.45 -24.96 174.78 74.91 74.91C174.8 -24.98 336.46 -24.96 436.34 74.91C536.22 174.8 536.21 336.46 436.34 436.34ZM413.71 97.54C326.33 10.16 184.91 10.17 97.54 97.54C10.16 184.92 10.17 326.34 97.54 413.71C184.92 501.09 326.34 501.08 413.71 413.71C501.09 326.33 501.08 184.91 413.71 97.54Z" />
	</g>
</svg>