<svg xmlns="http://www.w3.org/2000/svg" viewBox="0 0 512 512" width="512" height="512">
	<style>
		tspan { white-space:pre }
		.shp0 { fill: #8185a1 } 
		.shp1 { fill: #4acdb2 } 
	</style>
	<g id="Layer">
		<path id="Layer" fill-rule="evenodd" class="shp0" d="M511.19 441.42C509.54 445.41 505.65 448 501.34 448L420.42 448L359.55 508.87C357.5 510.92 354.77 512 352 512C350.63 512 349.23 511.74 347.92 511.19C343.94 509.54 341.34 505.64 341.34 501.33L341.34 288C341.34 283.69 343.94 279.79 347.92 278.14C351.88 276.5 356.5 277.41 359.55 280.46L364.05 284.97C365.4 282.33 366.9 279.78 368.11 277.08C370.5 271.73 376.84 269.32 382.21 271.73C387.59 274.14 389.98 280.46 387.56 285.83C385.27 290.95 382.6 295.88 379.88 300.79L508.88 429.79C511.92 432.84 512.84 437.43 511.19 441.42ZM416 426.67L475.59 426.67L368.26 319.34C367.62 320.25 367.09 321.23 366.44 322.13C365.42 323.52 364.11 324.57 362.67 325.31L362.67 475.58L408.46 429.79C410.46 427.79 413.17 426.67 416 426.67Z" />
		<g id="Layer">
			<path id="Layer" class="shp1" d="M119.54 17.74C106.79 23.47 94.61 30.56 83.27 38.82C78.52 42.29 77.48 48.97 80.94 53.72C83.04 56.58 86.27 58.1 89.56 58.1C91.75 58.1 93.96 57.44 95.86 56.05C105.98 48.67 116.9 42.32 128.3 37.2C133.67 34.78 136.07 28.47 133.65 23.09C131.23 17.73 124.9 15.31 119.54 17.74ZM38.9 83.21C30.65 94.48 23.52 106.7 17.77 119.5C15.36 124.88 17.75 131.19 23.13 133.6C24.54 134.24 26.04 134.54 27.5 134.54C31.57 134.54 35.46 132.2 37.23 128.25C42.38 116.8 48.73 105.88 56.11 95.81C59.59 91.06 58.56 84.38 53.81 80.91C49.04 77.44 42.38 78.46 38.9 83.21ZM382.9 182.52C383.63 189.14 384 195.85 384 202.67C384 209.48 383.63 216.2 382.9 222.81C382.25 228.67 386.48 233.94 392.34 234.58C392.73 234.63 393.13 234.65 393.52 234.65C398.88 234.65 403.5 230.6 404.11 225.15C404.92 217.76 405.34 210.27 405.34 202.67C405.34 195.06 404.92 187.57 404.11 180.19C403.46 174.32 398.07 170.15 392.34 170.75C386.48 171.4 382.25 176.67 382.9 182.52ZM368.11 128.25C369.88 132.2 373.77 134.54 377.83 134.54C379.29 134.54 380.79 134.24 382.21 133.6C387.58 131.19 389.98 124.88 387.56 119.5C381.81 106.7 374.69 94.48 366.44 83.21C362.96 78.44 356.29 77.42 351.52 80.91C346.77 84.39 345.75 91.06 349.23 95.81C356.61 105.89 362.96 116.8 368.11 128.25ZM285.79 17.74C280.42 15.32 274.09 17.73 271.69 23.09C269.27 28.47 271.67 34.78 277.04 37.2C288.44 42.32 299.36 48.67 309.48 56.05C311.38 57.44 313.59 58.1 315.77 58.1C319.07 58.1 322.29 56.58 324.4 53.72C327.86 48.97 326.82 42.29 322.07 38.82C310.73 30.56 298.54 23.47 285.79 17.74ZM225.15 1.23C217.77 0.42 210.27 0 202.67 0C195.06 0 187.56 0.42 180.19 1.23C174.34 1.88 170.11 7.15 170.75 13C171.36 18.46 175.98 22.5 181.34 22.5C181.73 22.5 182.13 22.48 182.52 22.44C189.15 21.71 195.86 21.33 202.67 21.33C209.48 21.33 216.19 21.71 222.81 22.44C223.21 22.48 223.61 22.5 224 22.5C229.36 22.5 233.98 18.46 234.59 13C235.23 7.15 231 1.88 225.15 1.23ZM22.44 222.81C21.71 216.2 21.34 209.48 21.34 202.67C21.34 195.85 21.71 189.14 22.44 182.52C23.09 176.67 18.86 171.4 13 170.75C7.19 170.12 1.88 174.32 1.23 180.19C0.42 187.57 0 195.06 0 202.67C0 210.27 0.42 217.76 1.23 225.15C1.84 230.6 6.46 234.65 11.82 234.65C12.21 234.65 12.61 234.62 13 234.58C18.86 233.94 23.09 228.67 22.44 222.81ZM128.29 368.13C116.9 363.01 105.98 356.67 95.86 349.28C91.11 345.81 84.44 346.85 80.94 351.61C77.48 356.36 78.52 363.04 83.27 366.51C94.61 374.77 106.79 381.86 119.54 387.59C120.96 388.23 122.46 388.53 123.92 388.53C127.98 388.53 131.88 386.19 133.65 382.24C136.06 376.87 133.67 370.55 128.29 368.13ZM37.23 277.08C34.84 271.72 28.48 269.3 23.13 271.73C17.75 274.15 15.36 280.46 17.77 285.83C23.52 298.64 30.65 310.85 38.9 322.13C40.98 324.98 44.23 326.49 47.5 326.49C49.69 326.49 51.9 325.82 53.82 324.43C58.57 320.95 59.59 314.27 56.11 309.52C48.73 299.45 42.38 288.53 37.23 277.08ZM309.48 349.28C299.36 356.67 288.44 363.01 277.04 368.13C271.67 370.55 269.27 376.86 271.69 382.24C273.46 386.19 277.36 388.53 281.42 388.53C282.88 388.53 284.38 388.23 285.79 387.59C298.54 381.86 310.73 374.77 322.06 366.51C326.81 363.04 327.86 356.36 324.4 351.61C320.9 346.85 314.23 345.81 309.48 349.28ZM222.81 382.9C216.19 383.63 209.48 384 202.67 384C195.86 384 189.15 383.63 182.52 382.9C176.67 382.27 171.4 386.47 170.75 392.33C170.11 398.19 174.33 403.46 180.19 404.11C187.56 404.92 195.06 405.33 202.67 405.33C210.27 405.33 217.77 404.92 225.15 404.11C231 403.46 235.23 398.19 234.59 392.33C233.94 386.47 228.59 382.29 222.81 382.9Z" />
			<path id="Shape 1" class="shp0" d="M374 406C366 331.88 367 355.12 363 322C359 288.88 536 496.12 608 470" />
			<path id=" " class="shp0" d="M358 321L441 419C441 419 501 390.12 449 418C397 445.88 413 432 413 432L390 456L375 478L358 481L445 429L355 488C355 488 352 461.12 353 453C354 444.88 356 407.12 356 398C356 388.88 356 396.13 356 378C356 359.87 356 357.12 356 350C356 342.88 360 326.12 358 321Z" />
			<path id="Shape 2" class="shp0" d="M359 310C359 310 389 341.13 392 344C395 346.88 397 354.13 404 362C411 369.87 416 375.12 423 384C430 392.88 439 401.12 446 407C453 412.88 462 421 462 421C462 421 478 429.13 457 431C436 432.87 441 433.13 433 433C425 432.87 422 436.12 417 433C412 429.88 408 434.13 401 417C394 399.87 394 402.12 387 384C380 365.88 378 364.12 374 351C370 337.88 371 338.12 367 332C363 325.88 360 327.12 359 320C358 312.88 359 310 359 310Z" />
		</g>
		<g id="Layer">
		</g>
		<g id="Layer">
		</g>
		<g id="Layer">
		</g>
		<g id="Layer">
		</g>
		<g id="Layer">
		</g>
		<g id="Layer">
		</g>
		<g id="Layer">
		</g>
		<g id="Layer">
		</g>
		<g id="Layer">
		</g>
		<g id="Layer">
		</g>
		<g id="Layer">
		</g>
		<g id="Layer">
		</g>
		<g id="Layer">
		</g>
		<g id="Layer">
		</g>
		<g id="Layer">
		</g>
	</g>
</svg>