<?xml version="1.0" encoding="iso-8859-1"?>
<!-- Generator: Adobe Illustrator 19.0.0, SVG Export Plug-In . SVG Version: 6.00 Build 0)  -->
<svg version="1.1" id="Capa_1" xmlns="http://www.w3.org/2000/svg" xmlns:xlink="http://www.w3.org/1999/xlink" x="0px" y="0px"
	 viewBox="0 0 511.999 511.999" style="enable-background:new 0 0 511.999 511.999;" xml:space="preserve">
<path style="fill:#0CA656;" d="M485.371,468.004c0.002-0.018,0.007-0.034,0.009-0.052c4.365-37.266,10.957-61.742,20.947-98.803
	l5.171-19.292c1.509-5.698-0.454-11.763-5.024-15.483c-4.585-3.75-10.913-4.409-16.187-1.787
	c-51.166,25.591-88.084,74.574-97.078,131.058c-0.236,1.481-0.24,2.944-0.051,4.358H485.371z"/>
<path style="fill:#10BB67;" d="M482.065,194.85c-4.922-4.189-11.997-4.775-17.52-1.421
	c-96.122,58.27-160.032,162.361-166.785,271.652c-0.04,0.65-0.024,1.29,0.017,1.923h125.207
	c8.127-107.833,35.186-186.328,63.226-255.074C488.657,205.939,486.987,199.054,482.065,194.85z"/>
<path style="fill:#0CA656;" d="M475.753,34.613c-5.405-4.658-13.345-4.834-18.97-0.439l-17.856,13.755
	c-64.482,49.466-137.576,105.526-196.302,220.983c-3.75,7.383-0.806,16.406,6.577,20.171l62.343,191.878
	c0.41,0.029,0.806,0.044,1.201,0.044c7.749,0,14.312-5.962,14.941-13.813c13.535-171.224,76.552-282.023,132.156-379.771
	c6.606-11.616,13.066-22.969,19.263-34.131C482.564,47.064,481.173,39.257,475.753,34.613z"/>
<path style="fill:#32D736;" d="M26.618,467.953c0.002,0.018,0.006,0.034,0.009,0.052h92.208c0.193-1.434,0.191-2.901-0.045-4.358
	c-8.994-56.483-45.911-105.468-97.078-131.058c-5.273-2.622-11.602-1.963-16.187,1.787c-4.57,3.721-6.533,9.785-5.024,15.483
	l5.171,19.292C15.661,406.211,22.253,430.687,26.618,467.953z"/>
<path style="fill:#0CA656;" d="M47.452,193.429l-0.176,0.278c-0.981-0.996-1.875-1.655-2.666-1.948
	c-5.581-2.021-11.807-0.557-15.894,3.735c-4.102,4.277-5.171,10.942-2.93,16.421c0.293,0.718,0.63,1.421,1.025,2.08
	c5.054,11.074,51.796,117.494,61.991,253.151l121.669-2.344C201.537,352.949,139.063,248.961,47.452,193.429z"/>
<path style="fill:#32D736;" d="M327.744,467.004c0.051-0.823,0.048-1.657-0.045-2.5c-9.9-89.701-37.2-162.6-71.699-221.397
	C197.2,141.708,117.102,81.108,69.701,45.108l-14.399-10.8c-5.7-4.501-13.801-4.2-19.2,0.3c-5.4,4.499-6.599,12.599-3.3,18.6
	l16.199,28.801c55.479,98.06,118.151,209.314,131.682,384.996H327.744z"/>
<path style="fill:#10BB67;" d="M327.744,467.004c0.051-0.823,0.048-1.657-0.045-2.5c-9.9-89.701-37.2-162.6-71.699-221.397v223.897
	H327.744z"/>
<path style="fill:#C85F03;" d="M511.996,466.004c0,8.399-6.599,15-15,15H15.002c-8.401,0-15-6.601-15-15c0-8.401,6.599-15,15-15
	h481.994C505.397,451.004,511.996,457.604,511.996,466.004z"/>
<path style="fill:#994C0F;" d="M511.996,466.004c0,8.399-6.599,15-15,15H255.999v-30h240.997
	C505.397,451.004,511.996,457.604,511.996,466.004z"/>
<g>
</g>
<g>
</g>
<g>
</g>
<g>
</g>
<g>
</g>
<g>
</g>
<g>
</g>
<g>
</g>
<g>
</g>
<g>
</g>
<g>
</g>
<g>
</g>
<g>
</g>
<g>
</g>
<g>
</g>
</svg>
