<?xml version="1.0" encoding="iso-8859-1"?>
<!-- Generator: Adobe Illustrator 19.0.0, SVG Export Plug-In . SVG Version: 6.00 Build 0)  -->
<svg version="1.1" id="Capa_1" xmlns="http://www.w3.org/2000/svg" xmlns:xlink="http://www.w3.org/1999/xlink" x="0px" y="0px"
	 viewBox="0 0 512 512" style="enable-background:new 0 0 512 512;" xml:space="preserve">
<path style="fill:#AEADB3;" d="M433.879,147.09v43.67l-68.19-4.07V114.6l47.68,8.06l5-29.58L98.63,39.05l-5,29.58l117.91,19.92
	v88.93l-130.85-7.81V75.88h-30v360.24h30V337.6l130.85-6.96v96.07L93.63,446.63l5,29.58l319.74-54.03l-5-29.58l-47.68,8.06v-78.22
	l68.19-3.62v50.75h30V147.09H433.879z M241.539,93.62l94.15,15.91v75.37l-94.15-5.63L241.539,93.62L241.539,93.62z M211.539,300.6
	l-130.85,6.95V199.72l130.85,7.82V300.6z M335.689,405.73l-94.15,15.91v-92.6l94.15-5V405.73z M335.689,293.99L241.539,299v-89.67
	l94.15,5.62v79.04H335.689z M433.879,288.77l-68.19,3.63v-75.66l68.19,4.07V288.77z"/>
<path style="fill:#8B8992;" d="M433.879,256v32.77l-68.19,3.63V256h-30v37.99L241.539,299v-43h-30v44.6l-130.85,6.95V256h-30v180.12
	h30V337.6l130.85-6.96v96.07L93.63,446.63l5,29.58l319.74-54.03l-5-29.58l-47.68,8.06v-78.22l68.19-3.62v50.75h30V256H433.879z
	 M335.689,405.73l-94.15,15.91v-92.6l94.15-5V405.73z"/>
<path style="fill:#00DFC1;" d="M111.13,90.879H20.252V0h90.878V90.879z M50.252,60.879H81.13V30H50.252V60.879z"/>
<g>
	<path style="fill:#00AF98;" d="M111.13,512H20.252v-90.879h90.878V512z M50.252,482H81.13v-30.879H50.252V482z"/>
	<path style="fill:#00AF98;" d="M491.749,445.446H400.87v-90.879h90.879V445.446z M430.87,415.446h30.879v-30.879H430.87V415.446z"
		/>
</g>
<path style="fill:#00DFC1;" d="M491.749,162.085H400.87V71.206h90.879V162.085z M430.87,132.085h30.879v-30.879H430.87V132.085z"/>
<g>
</g>
<g>
</g>
<g>
</g>
<g>
</g>
<g>
</g>
<g>
</g>
<g>
</g>
<g>
</g>
<g>
</g>
<g>
</g>
<g>
</g>
<g>
</g>
<g>
</g>
<g>
</g>
<g>
</g>
</svg>
