<svg id="Capa_1" enable-background="new 0 0 512 512" height="512" viewBox="0 0 512 512" width="512" xmlns="http://www.w3.org/2000/svg"><g><path d="m175.979 362.536c-30.051 0-54.499-24.448-54.499-54.499s24.448-54.499 54.499-54.499 54.499 24.448 54.499 54.499-24.448 54.499-54.499 54.499zm0-88.8c-18.914 0-34.301 15.388-34.301 34.301 0 18.914 15.388 34.301 34.301 34.301 18.914 0 34.302-15.388 34.302-34.301s-15.388-34.301-34.302-34.301z" fill="#a6eddf"/><g fill="#7bd9c5"><path d="m181.353 341.915c1.751.277 3.545.424 5.373.424 18.914 0 34.302-15.388 34.302-34.301 0-18.914-15.388-34.301-34.302-34.301-1.828 0-3.622.147-5.373.424 16.37 2.587 28.928 16.792 28.928 33.877s-12.558 31.29-28.928 33.877z"/><path d="m132.227 308.037c0-28.237 21.588-51.523 49.125-54.231-1.768-.174-3.56-.267-5.373-.267-30.051 0-54.499 24.448-54.499 54.499s24.448 54.499 54.499 54.499c1.813 0 3.605-.093 5.373-.267-27.537-2.709-49.125-25.995-49.125-54.233z"/></g><path d="m154.398 416.912c-5.577 0-10.099-4.521-10.099-10.099 0-5.577 4.521-10.099 10.099-10.099 18.914 0 34.301-15.388 34.301-34.301 0-18.861-15.3-34.215-34.141-34.301-.055.001-.109.001-.164.001h-13.204c-3.074 0-6.169-.101-9.199-.299-34.16-2.194-66.353-16.775-90.636-41.058-26.667-26.656-41.355-62.112-41.355-99.834 0-77.853 63.338-141.191 141.192-141.191h159.33c37.71 0 73.166 14.687 99.835 41.357 26.669 26.658 41.356 62.114 41.356 99.835 0 77.853-63.338 141.192-141.191 141.192h-81.268l6.799-20.197h74.469c66.716 0 120.994-54.278 120.994-120.995 0-32.325-12.586-62.708-35.439-85.552-22.856-22.856-53.24-35.443-85.555-35.443h-159.33c-66.716 0-120.995 54.278-120.995 120.994 0 32.325 12.586 62.708 35.439 85.552 20.811 20.811 48.392 33.306 77.663 35.186 2.606.171 5.257.257 7.892.257h13.021c.062-.001.124-.002.185-.002 30.051 0 54.499 24.448 54.499 54.499.001 30.05-24.447 54.498-54.498 54.498z" fill="#a6eddf"/><g fill="#7bd9c5"><path d="m300.522 307.917h10.097c66.716 0 120.994-54.278 120.994-120.995 0-32.325-12.586-62.708-35.439-85.552-22.856-22.856-53.24-35.443-85.555-35.443h-10.097c32.316 0 62.699 12.587 85.555 35.443 22.853 22.844 35.439 53.227 35.439 85.552 0 66.717-54.278 120.995-120.994 120.995z"/><path d="m154.397 406.814c0-5.577 4.521-10.099 10.099-10.099 18.914 0 34.301-15.388 34.301-34.301 0-18.861-15.3-34.215-34.141-34.301-.055.001-.109.001-.164.001h-9.884c18.818.113 34.091 15.456 34.091 34.3 0 18.914-15.388 34.301-34.301 34.301-5.577 0-10.099 4.521-10.099 10.099 0 5.577 4.521 10.099 10.099 10.099 2.39 0 4.739-.171 7.048-.471-4.086-1.294-7.049-5.114-7.049-9.628z"/><path d="m142.09 327.815c-34.16-2.194-66.353-16.775-90.636-41.058-26.669-26.657-41.357-62.113-41.357-99.835 0-77.853 63.338-141.192 141.192-141.192h-10.097c-77.854.001-141.192 63.339-141.192 141.192 0 37.722 14.688 73.178 41.357 99.835 24.283 24.283 56.476 38.864 90.636 41.058 3.03.199 6.125.299 9.199.299h10.097c-3.074 0-6.169-.1-9.199-.299z"/></g><path d="m469.155 363.812-59.148-7.269c-18.205-2.237-35.419 8.822-40.951 26.31l-17.975 56.818c-11.972 37.844-66.615 34.416-73.763-4.628l-44.771-244.531c-6.128-33.469 31.37-57.56 59.264-38.075l203.795 142.363c32.54 22.73 12.945 73.854-26.451 69.012z" fill="#8185a1"/><path d="m341.225 455.894c-19.95 19.293-58.024 11.289-63.908-20.851l-44.771-244.535c-5.494-30.015 24.105-52.486 50.384-42.749-8.76 8.218-13.786 20.54-11.23 34.491l44.771 244.535c2.789 15.254 12.837 25.074 24.754 29.109z" fill="#5f6487"/></g></svg>