<?xml version="1.0" encoding="iso-8859-1"?>
<!-- Generator: Adobe Illustrator 19.0.0, SVG Export Plug-In . SVG Version: 6.00 Build 0)  -->
<svg version="1.1" id="Capa_1" xmlns="http://www.w3.org/2000/svg" xmlns:xlink="http://www.w3.org/1999/xlink" x="0px" y="0px"
	 viewBox="0 0 512 512" style="enable-background:new 0 0 512 512;" xml:space="preserve">
<path style="fill:#78B9EB;" d="M377.404,164.878L283.082,259.2l-79.829,79.829c-13.397,13.387-32.313,18.071-49.592,14.086
	l-28.369,28.369c-5.832,5.832-13.512,8.744-21.191,8.744s-15.359-2.911-21.191-8.744c-11.665-11.655-11.665-30.728,0-42.382
	l28.369-28.38c-3.996-17.268,0.689-36.195,14.086-49.581l79.829-79.829l94.322-94.332c5.269-5.259,13.887-5.259,19.156,0
	l58.732,58.742C382.673,150.991,382.673,159.609,377.404,164.878z"/>
<path style="fill:#C2DFF6;" d="M377.404,164.878L283.082,259.2l-77.888-77.888l94.322-94.332c5.269-5.259,13.887-5.259,19.156,0
	l58.732,58.742C382.673,150.991,382.673,159.609,377.404,164.878z"/>
<path style="fill:#5AAAE7;" d="M105.458,500.439c-5.426,6.605-13.449,11.091-22.954,11.529C81.982,511.99,81.46,512,80.928,512
	h-1.252c-0.522,0-1.043-0.01-1.565-0.031c-22.568-1.023-36.769-24.926-27.754-45.637l23.549-54.12
	c2.431-5.592,10.371-5.592,12.802,0l5.186,11.926l18.363,42.194C115.474,478.32,112.917,491.362,105.458,500.439z"/>
<path style="fill:#78B9EB;" d="M105.458,500.439c-22.088-1.555-35.83-25.125-26.93-45.585l13.366-30.717l18.363,42.194
	C115.474,478.32,112.917,491.362,105.458,500.439z"/>
<path style="fill:#5AAAE7;" d="M346.208,114.514c-5.279-5.144-13.814-5.102-19.042,0.115l-94.322,94.332l-79.829,79.829
	c-13.397,13.387-18.082,32.313-14.086,49.581l-28.369,28.38c-6.385,6.385-9.276,14.993-8.67,23.393
	c-6.928-0.501-13.71-3.391-18.979-8.66c-11.665-11.655-11.665-30.728,0-42.382l28.369-28.38
	c-3.996-17.268,0.689-36.195,14.086-49.581l79.829-79.829l94.322-94.332c5.269-5.259,13.887-5.259,19.156,0L346.208,114.514z"/>
<path style="fill:#B3D8F4;" d="M346.208,114.514c-5.279-5.144-13.814-5.102-19.042,0.115l-94.322,94.332l-27.65-27.65l94.322-94.332
	c5.269-5.259,13.887-5.259,19.156,0L346.208,114.514z"/>
<path style="fill:#2D2D30;" d="M445.442,114.305l-10.34,10.35l-48.016,48.006c-4.862,4.873-12.834,4.873-17.706,0l-77.659-77.659
	c-4.862-4.873-4.862-12.834,0-17.706l58.356-58.356c19.167-19.167,47.609-23.789,71.242-13.856
	c7.502,3.151,14.524,7.773,20.617,13.856l3.506,3.516C470.704,47.717,470.704,89.045,445.442,114.305z"/>
<g>
	<path style="fill:#3E3D42;" d="M445.442,114.305l-10.34,10.35l-57.824-57.824c-4.862-4.873-4.862-12.834,0-17.706l44.041-44.041
		c7.502,3.151,14.524,7.773,20.617,13.856l3.506,3.516C470.704,47.717,470.704,89.045,445.442,114.305z"/>
	<path style="fill:#3E3D42;" d="M429.625,197.995l-18.176,18.186c-7.241,7.241-19.052,7.304-26.366,0.188L271.334,102.63
		c-0.063-0.063-0.125-0.125-0.188-0.198l-22.933-22.933c-7.304-7.304-7.304-19.25,0-26.554l18.186-18.186
		c7.304-7.304,19.25-7.304,26.554,0l23.132,23.132L429.625,171.43C436.928,178.734,436.928,190.691,429.625,197.995z"/>
</g>
<path style="fill:#57565C;" d="M429.625,197.995l-18.176,18.186c-7.241,7.241-19.052,7.304-26.366,0.188L271.334,102.63
	c-0.063-0.063-0.125-0.125-0.188-0.198c-7.116-7.314-7.053-19.125,0.188-26.366L289.52,57.89c7.304-7.304,19.261-7.304,26.564,0
	L429.625,171.43C436.928,178.734,436.928,190.691,429.625,197.995z"/>
<g>
</g>
<g>
</g>
<g>
</g>
<g>
</g>
<g>
</g>
<g>
</g>
<g>
</g>
<g>
</g>
<g>
</g>
<g>
</g>
<g>
</g>
<g>
</g>
<g>
</g>
<g>
</g>
<g>
</g>
</svg>
