<svg xmlns="http://www.w3.org/2000/svg" viewBox="0 0 470 470" width="470" height="470">
	<style>
		tspan { white-space:pre }
		.shp0 { fill: #8185a1 } 
		.shp1 { fill: #6ad1bd } 
	</style>
	<g id="Layer">
		<path id="Layer" class="shp0" d="M454.63 379.5L312.77 237.64C309.88 234.74 305.5 233.89 301.72 235.44C297.94 237 295.47 240.7 295.47 244.8L295.47 447.47C295.47 451.56 297.94 455.26 301.72 456.83C302.97 457.35 304.3 457.6 305.6 457.6C308.23 457.6 310.83 456.57 312.77 454.63L370.6 396.8L447.47 396.8C451.57 396.8 455.27 394.34 456.83 390.55C458.39 386.76 457.52 382.4 454.63 379.5Z" />
		<path id="Layer" class="shp0" d="M366.4 376.53C363.71 376.53 361.14 377.6 359.24 379.5L315.74 423L315.74 269.26L423.01 376.53L366.4 376.53Z" />
		<g id="Layer">
			<path id="Layer" class="shp1" d="M52.27 336L32 336L32 315.73C32 310.13 27.47 305.6 21.87 305.6C16.27 305.6 11.74 310.13 11.74 315.73L11.74 346.13C11.74 351.73 16.27 356.27 21.87 356.27L52.27 356.27C57.87 356.27 62.4 351.73 62.4 346.13C62.4 340.53 57.87 336 52.27 336ZM21.87 163.73C27.47 163.73 32 159.2 32 153.6L32 113.07C32 107.46 27.47 102.93 21.87 102.93C16.27 102.93 11.74 107.46 11.74 113.07L11.74 153.6C11.74 159.2 16.27 163.73 21.87 163.73ZM21.87 265.07C27.47 265.07 32 260.53 32 254.93L32 214.4C32 208.8 27.47 204.27 21.87 204.27C16.27 204.27 11.74 208.8 11.74 214.4L11.74 254.93C11.74 260.53 16.27 265.07 21.87 265.07ZM52.27 11.73L21.87 11.73C16.27 11.73 11.74 16.27 11.74 21.87L11.74 52.27C11.74 57.87 16.27 62.4 21.87 62.4C27.47 62.4 32 57.87 32 52.27L32 32L52.27 32C57.87 32 62.4 27.47 62.4 21.87C62.4 16.26 57.87 11.73 52.27 11.73ZM153.6 11.73L113.07 11.73C107.47 11.73 102.94 16.27 102.94 21.87C102.94 27.47 107.47 32 113.07 32L153.6 32C159.2 32 163.74 27.47 163.74 21.87C163.74 16.27 159.2 11.73 153.6 11.73ZM254.94 11.73L214.4 11.73C208.8 11.73 204.27 16.27 204.27 21.87C204.27 27.47 208.8 32 214.4 32L254.94 32C260.54 32 265.07 27.47 265.07 21.87C265.07 16.27 260.54 11.73 254.94 11.73ZM153.6 336L113.07 336C107.47 336 102.94 340.53 102.94 346.13C102.94 351.73 107.47 356.27 113.07 356.27L153.6 356.27C159.2 356.27 163.74 351.73 163.74 346.13C163.74 340.53 159.2 336 153.6 336ZM254.94 336L214.4 336C208.8 336 204.27 340.53 204.27 346.13C204.27 351.73 208.8 356.27 214.4 356.27L254.94 356.27C260.54 356.27 265.07 351.73 265.07 346.13C265.07 340.53 260.54 336 254.94 336ZM315.74 32L336 32L336 52.27C336 57.87 340.53 62.4 346.14 62.4C351.74 62.4 356.27 57.87 356.27 52.27L356.27 21.87C356.27 16.27 351.74 11.73 346.14 11.73L315.74 11.73C310.13 11.73 305.6 16.27 305.6 21.87C305.6 27.47 310.13 32 315.74 32ZM346.14 204.27C340.53 204.27 336 208.8 336 214.4L336 234.67C336 240.27 340.53 244.8 346.14 244.8C351.74 244.8 356.27 240.27 356.27 234.67L356.27 214.4C356.27 208.8 351.74 204.27 346.14 204.27ZM356.27 113.07C356.27 107.47 351.74 102.93 346.14 102.93C340.53 102.93 336 107.47 336 113.07L336 153.6C336 159.2 340.53 163.73 346.14 163.73C351.74 163.73 356.27 159.2 356.27 153.6L356.27 113.07Z" />
		</g>
		<g id="Layer">
		</g>
		<g id="Layer">
		</g>
		<g id="Layer">
		</g>
		<g id="Layer">
		</g>
		<g id="Layer">
		</g>
		<g id="Layer">
		</g>
		<g id="Layer">
		</g>
		<g id="Layer">
		</g>
		<g id="Layer">
		</g>
		<g id="Layer">
		</g>
		<g id="Layer">
		</g>
		<g id="Layer">
		</g>
		<g id="Layer">
		</g>
		<g id="Layer">
		</g>
		<g id="Layer">
		</g>
	</g>
</svg>