<svg height="513pt" viewBox="0 0 513 513.04533" width="513pt" xmlns="http://www.w3.org/2000/svg"><path d="m496.023438 213.738281h-138.667969c-8.832031 0-16-7.167969-16-16s7.167969-16 16-16h122.667969v-122.984375c0-8.832031 7.167968-16 16-16 8.832031 0 16 7.167969 16 16v138.984375c0 8.832031-7.167969 16-16 16zm0 0"/><path d="m256.023438 513.046875c-141.164063 0-256.0000005-115.09375-256.0000005-256.511719 0-141.421875 114.8359375-256.535156 256.0000005-256.535156 120.382812 0 227.859374 81.535156 255.550781 193.898438 2.113281 8.578124-3.113281 17.257812-11.710938 19.371093-8.578125 2.070313-17.257812-3.113281-19.371093-11.710937-24.214844-98.242188-118.613282-169.558594-224.46875-169.558594-123.519532 0-224 100.734375-224 224.511719 0 123.777343 100.480468 224.535156 224 224.535156 59.796874 0 116.011718-23.363281 158.335937-65.773437 6.230469-6.269532 16.363281-6.269532 22.632813-.042969 6.273437 6.253906 6.273437 16.386719.042968 22.636719-48.382812 48.46875-112.660156 75.179687-181.011718 75.179687zm0 0"/></svg>