<svg xmlns="http://www.w3.org/2000/svg" viewBox="0 0 512 512" width="512" height="512">
	<style>
		tspan { white-space:pre }
		.shp0 { fill: #0b6c91 } 
	</style>
	<g id="Layer">
		<g id="Layer">
			<g id="Layer">
				<path id="Layer" fill-rule="evenodd" class="shp0" d="M0 0L32 0L32 32L0 32L0 0ZM80 0L112 0L112 32L80 32L80 0ZM160 0L192 0L192 32L160 32L160 0ZM240 0L272 0L272 32L240 32L240 0ZM320 0L352 0L352 32L320 32L320 0ZM400 0L432 0L432 32L400 32L400 0ZM480 0L512 0L512 32L480 32L480 0ZM0 480L32 480L32 512L0 512L0 480ZM80 480L112 480L112 512L80 512L80 480ZM160 480L192 480L192 512L160 512L160 480ZM240 480L272 480L272 512L240 512L240 480ZM320 480L352 480L352 512L320 512L320 480ZM400 480L432 480L432 512L400 512L400 480ZM0 400L32 400L32 432L0 432L0 400ZM0 320L32 320L32 352L0 352L0 320ZM0 240L32 240L32 272L0 272L0 240ZM0 160L32 160L32 192L0 192L0 160ZM0 80L32 80L32 112L0 112L0 80ZM480 400L512 400L512 432L480 432L480 400ZM480 320L512 320L512 352L480 352L480 320ZM480 240L512 240L512 272L480 272L480 240ZM480 160L512 160L512 192L480 192L480 160ZM480 80L512 80L512 112L480 112L480 80ZM480 480L512 480L512 512L480 512L480 480ZM96 96L416 96L416 416L96 416L96 96ZM128 384L384 384L384 128L128 128L128 384Z" />
			</g>
		</g>
	</g>
	<g id="Layer">
	</g>
	<g id="Layer">
	</g>
	<g id="Layer">
	</g>
	<g id="Layer">
	</g>
	<g id="Layer">
	</g>
	<g id="Layer">
	</g>
	<g id="Layer">
	</g>
	<g id="Layer">
	</g>
	<g id="Layer">
	</g>
	<g id="Layer">
	</g>
	<g id="Layer">
	</g>
	<g id="Layer">
	</g>
	<g id="Layer">
	</g>
	<g id="Layer">
	</g>
	<g id="Layer">
	</g>
</svg>