<svg id="Capa_1" enable-background="new 0 0 512 512" height="512" viewBox="0 0 512 512" width="512" xmlns="http://www.w3.org/2000/svg"><g><path d="m256 0h-256v63.734l256 10.001 10-44.235z" fill="#9fbd28"/><path d="m256 0v73.735l256-10.001v-63.734z" fill="#4a9f46"/><path d="m256 314 10-144.5-10-105.766h-256v112.47l10 15-10 15v62.127z" fill="#bc8372"/><path d="m512 268.331v-204.597h-75.805l-27.07 10.001-15.356-10.001h-137.769v250.266z" fill="#9f5f4b"/><path d="m254.679 254.893-50.212 13.899-50.212-13.899h-2.643l-50.212 13.899-50.212-13.899h-2.643l-48.545 13.438v243.669h48.734l15-10 15 10h72.104l105.162-45.783 20-71.063-20-140.261z" fill="#9f5f4b"/><path d="m460.812 254.893-50.212 13.899-50.212-13.899h-2.643l-50.212 13.899-50.212-13.899h-1.321v257.107h189.157l66.843-116.846v-49.797l-10-13.107 10-16.893v-47.026l-48.545-13.438z" fill="#7d4b3b"/><path d="m80.319 112.469h30v30h-30z" fill="#e5e5e5"/><path d="m433.266 112.469h30v30h-30z" fill="#ccc"/><path d="m268.264 144.336h30v30h-30z" fill="#ccc"/><g><path d="m182.545 174.336h-39.143v-30h26.717l31.513-31.513h33.831v30h-21.404z" fill="#9f5f4b"/></g><g><path d="m341.688 176.204h64.796v30h-64.796z" fill="#7d4b3b"/></g><path d="m393.769 63.734-39.853 39.853v34.504h30v-22.077l52.279-52.28z" fill="#7d4b3b"/><g><path d="m0 176.204h79.386v30h-79.386z" fill="#9f5f4b"/></g><path d="m63.734 333.544v43.984l25.799 25.799 22.415 5.498 43.139-17.496v-36.639l-27.067-21.146z" fill="#ffb555"/><path d="m150.838 512v-38.949l32.205-27.618h48.721l24.236 20.784v45.783" fill="#ffb555"/><path d="m309.011 334.252-30.453 21.571v26.646l35.211 30.389h41.719l24.897-40.584-14.275-36.163z" fill="#ff8759"/><path d="m512 395.154-36.987 9.029-22.058 37.444-32.308 3.806v37.355l24.51 29.212h66.843z" fill="#ff8759"/><g><path d="m48.734 453.718h30v58.282h-30z" fill="#7d4b3b"/></g><g><path d="m442.938 360.083-21.212-21.212 23.513-23.514h66.761v30h-54.334z" fill="#5b362a"/></g></g></svg>