<svg id="Capa_1" enable-background="new 0 0 512 512" height="512" viewBox="0 0 512 512" width="512" xmlns="http://www.w3.org/2000/svg"><path d="m459.041 113.384c0 12.826 9.037 23.528 21.067 26.038 2.365.493 4.03 2.625 4.03 5.041v32.917c0 2.416-1.665 4.548-4.03 5.041-12.03 2.51-21.067 13.212-21.067 26.038s9.037 23.528 21.067 26.038c2.365.493 4.031 2.625 4.031 5.041v32.928c0 2.416-1.665 4.548-4.031 5.041-12.03 2.51-21.067 13.212-21.067 26.038s9.037 23.528 21.067 26.038c2.365.493 4.03 2.625 4.03 5.041v32.916c0 2.416-1.665 4.548-4.03 5.041-12.03 2.51-21.067 13.212-21.067 26.038s9.037 23.528 21.067 26.038c2.365.493 4.03 2.625 4.03 5.041v77.128c0 2.857-2.316 5.173-5.173 5.173h-24.72c-2.478 0-4.645-1.751-5.075-4.192-2.193-12.464-13.029-21.925-26.07-21.925s-23.878 9.461-26.07 21.925c-.429 2.441-2.597 4.192-5.075 4.192h-32.391c-2.478 0-4.645-1.751-5.075-4.192-2.193-12.464-13.029-21.925-26.07-21.925s-23.878 9.461-26.07 21.925c-.429 2.441-2.597 4.192-5.075 4.192h-32.402c-2.478 0-4.645-1.751-5.075-4.192-2.193-12.464-13.029-21.925-26.07-21.925s-23.878 9.461-26.07 21.925c-.429 2.441-2.597 4.192-5.075 4.192h-32.391c-2.478 0-4.645-1.751-5.075-4.192-2.193-12.464-13.029-21.925-26.07-21.925s-23.878 9.461-26.07 21.925c-.429 2.441-2.597 4.192-5.075 4.192h-24.72c-2.857 0-5.173-2.316-5.173-5.173v-77.128c0-2.416 1.665-4.548 4.03-5.041 12.03-2.51 21.067-13.212 21.067-26.038s-9.037-23.528-21.067-26.038c-2.365-.493-4.03-2.625-4.03-5.041v-32.916c0-2.416 1.665-4.548 4.03-5.041 12.03-2.51 21.067-13.212 21.067-26.038s-9.037-23.528-21.067-26.038c-2.365-.493-4.031-2.625-4.031-5.041v-32.928c0-2.416 1.665-4.548 4.031-5.041 12.03-2.51 21.067-13.212 21.067-26.038s-9.037-23.528-21.067-26.038c-2.365-.493-4.03-2.625-4.03-5.041v-32.917c0-2.416 1.665-4.548 4.03-5.041 12.03-2.51 21.067-13.212 21.067-26.038s-9.035-23.529-21.065-26.038c-2.365-.493-4.03-2.625-4.03-5.041v-77.128c0-2.857 2.316-5.173 5.173-5.173h24.72c2.478 0 4.645 1.751 5.075 4.192 2.193 12.464 13.029 21.926 26.07 21.926s23.878-9.461 26.07-21.926c.429-2.441 2.597-4.192 5.075-4.192h32.391c2.478 0 4.645 1.751 5.075 4.192 2.193 12.464 13.029 21.926 26.07 21.926s23.878-9.461 26.07-21.926c.429-2.441 2.597-4.192 5.075-4.192h32.402c2.478 0 4.645 1.751 5.075 4.192 2.193 12.464 13.029 21.926 26.07 21.926s23.878-9.461 26.07-21.926c.429-2.441 2.597-4.192 5.075-4.192h32.391c2.478 0 4.645 1.751 5.075 4.192 2.193 12.464 13.029 21.926 26.07 21.926s23.878-9.461 26.07-21.926c.429-2.441 2.597-4.192 5.075-4.192h24.72c2.857 0 5.173 2.316 5.173 5.173v77.128c0 2.416-1.665 4.548-4.03 5.041-12.033 2.509-21.069 13.212-21.069 26.038z" fill="#ff5757"/><path d="m459.044 113.381c0 12.829 9.032 23.527 21.064 26.041 2.369.497 4.025 2.628 4.025 5.039v32.921c0 2.411-1.655 4.542-4.025 5.038-12.032 2.514-21.064 13.212-21.064 26.041s9.032 23.527 21.064 26.041c2.369.486 4.025 2.618 4.025 5.038v32.931c0 2.411-1.655 4.542-4.025 5.038-12.032 2.504-21.064 13.212-21.064 26.041 0 12.819 9.032 23.527 21.064 26.03 2.369.497 4.025 2.628 4.025 5.049v32.91c0 2.421-1.655 4.552-4.025 5.049-12.032 2.504-21.064 13.212-21.064 26.03 0 12.829 9.032 23.527 21.064 26.041 2.369.497 4.025 2.628 4.025 5.039v77.129c0 2.855-2.307 5.173-5.173 5.173h-24.716c-.548 0-1.086-.083-1.583-.248 2.069-.683 3.569-2.628 3.569-4.925v-77.129c0-2.411-1.666-4.542-4.035-5.039-12.032-2.514-21.064-13.212-21.064-26.041 0-12.819 9.032-23.527 21.064-26.03 2.369-.497 4.035-2.628 4.035-5.049v-32.91c0-2.421-1.666-4.552-4.035-5.049-12.032-2.504-21.064-13.212-21.064-26.03 0-12.829 9.032-23.537 21.064-26.041 2.369-.497 4.035-2.628 4.035-5.038v-32.931c0-2.421-1.666-4.552-4.035-5.038-12.032-2.514-21.064-13.212-21.064-26.041s9.032-23.527 21.064-26.041c2.369-.497 4.035-2.628 4.035-5.038v-32.922c0-2.411-1.666-4.542-4.035-5.039-12.032-2.514-21.064-13.212-21.064-26.041 0-12.819 9.032-23.527 21.064-26.03 2.369-.497 4.035-2.628 4.035-5.049v-77.128c0-2.297-1.5-4.242-3.569-4.925.496-.165 1.034-.248 1.582-.248h24.716c2.866 0 5.173 2.317 5.173 5.173v77.129c0 2.421-1.655 4.552-4.025 5.049-12.031 2.503-21.063 13.211-21.063 26.03z" fill="#f72c2c"/><path d="m418.806 448.957h-275.464c-3.428 0-6.208-2.779-6.208-6.208v-373.494c0-3.428 2.779-6.208 6.208-6.208h275.464c3.428 0 6.208 2.779 6.208 6.208v373.495c0 3.428-2.78 6.207-6.208 6.207z" fill="#c9f0ff"/><path d="m425.016 69.255v373.497c0 3.424-2.783 6.208-6.208 6.208h-23.775c3.424 0 6.208-2.783 6.208-6.208v-373.497c0-3.424-2.783-6.208-6.208-6.208h23.775c3.425.001 6.208 2.784 6.208 6.208z" fill="#9ae7fd"/><path d="m424.779 325.672-68.789-77.523c-3.895-4.389-10.681-4.592-14.831-.444l-38.849 38.831-51.945-58.54c-3.894-4.389-10.681-4.592-14.831-.444l-98.166 98.12h-.235v117.077c0 3.429 2.779 6.208 6.208 6.208h275.464c3.428 0 6.208-2.779 6.208-6.208v-117.077z" fill="#a3e72d"/><circle cx="351.58" cy="155.498" fill="#ffcd6b" r="42.81"/><path d="m394.392 155.499c0 23.64-19.171 42.811-42.811 42.811-12.384 0-23.537-5.256-31.348-13.667 4.056 1.283 8.38 1.966 12.86 1.966 23.64 0 42.801-19.171 42.801-42.811 0-11.267-4.345-21.499-11.463-29.144 17.36 5.452 29.961 21.684 29.961 40.845z" fill="#ffb509"/><path d="m425.016 325.668v117.085c0 3.424-2.783 6.208-6.208 6.208h-23.775c3.424 0 6.208-2.783 6.208-6.208v-143.612l23.537 26.527z" fill="#80cf00"/><g fill="#00aaf2"><path d="m273.514 369.433c-21.629 0-33.019-5.739-43.067-10.802-9.387-4.73-18.254-9.198-36.317-9.198s-26.93 4.468-36.317 9.197c-10.049 5.063-21.438 10.803-43.068 10.803-21.628 0-33.017-5.739-43.065-10.803-9.387-4.729-18.253-9.197-36.315-9.197-4.143 0-7.5-3.357-7.5-7.5s3.357-7.5 7.5-7.5c21.628 0 33.018 5.739 43.065 10.803 9.387 4.729 18.253 9.197 36.315 9.197 18.064 0 26.931-4.468 36.318-9.198 10.049-5.063 21.438-10.802 43.067-10.802s33.019 5.739 43.067 10.802c9.388 4.73 18.254 9.198 36.317 9.198 4.143 0 7.5 3.357 7.5 7.5s-3.358 7.5-7.5 7.5z"/><path d="m273.514 400.996c-21.629 0-33.019-5.739-43.067-10.802-9.387-4.73-18.254-9.198-36.317-9.198s-26.93 4.468-36.317 9.197c-10.049 5.063-21.438 10.803-43.068 10.803-21.628 0-33.017-5.739-43.065-10.803-9.387-4.729-18.253-9.197-36.315-9.197-4.143 0-7.5-3.357-7.5-7.5s3.357-7.5 7.5-7.5c21.628 0 33.018 5.739 43.065 10.803 9.387 4.729 18.253 9.197 36.315 9.197 18.064 0 26.931-4.468 36.318-9.198 10.049-5.063 21.438-10.802 43.067-10.802s33.019 5.739 43.067 10.802c9.388 4.73 18.254 9.198 36.317 9.198 4.143 0 7.5 3.357 7.5 7.5s-3.358 7.5-7.5 7.5z"/><path d="m273.514 432.56c-21.629 0-33.019-5.739-43.067-10.802-9.387-4.73-18.254-9.198-36.317-9.198s-26.93 4.468-36.317 9.197c-10.049 5.063-21.438 10.803-43.068 10.803-21.628 0-33.017-5.739-43.065-10.803-9.387-4.729-18.253-9.197-36.315-9.197-4.143 0-7.5-3.357-7.5-7.5s3.357-7.5 7.5-7.5c21.628 0 33.018 5.739 43.065 10.803 9.387 4.729 18.253 9.197 36.315 9.197 18.064 0 26.931-4.468 36.318-9.198 10.049-5.063 21.438-10.802 43.067-10.802s33.019 5.739 43.067 10.802c9.388 4.73 18.254 9.198 36.317 9.198 4.143 0 7.5 3.357 7.5 7.5s-3.358 7.5-7.5 7.5z"/></g></svg>