<?xml version="1.0" encoding="iso-8859-1"?>
<!-- Generator: Adobe Illustrator 19.0.0, SVG Export Plug-In . SVG Version: 6.00 Build 0)  -->
<svg version="1.1" id="Layer_1" xmlns="http://www.w3.org/2000/svg" xmlns:xlink="http://www.w3.org/1999/xlink" x="0px" y="0px"
	 viewBox="0 0 512 512" style="enable-background:new 0 0 512 512;" xml:space="preserve">
<rect x="85.745" y="448.602" style="fill:#B3B3B3;" width="340.5" height="53.199"/>
<path style="fill:#FFBA57;" d="M469.879,448.598H42.122v-48.947c0-21.744,17.627-39.371,39.371-39.371h349.016
	c21.744,0,39.371,17.627,39.371,39.371v48.947H469.879z"/>
<rect x="226.209" y="211.307" style="fill:#E6E6E6;" width="59.584" height="148.97"/>
<polygon style="fill:#FFBA57;" points="305.48,211.309 206.521,211.309 171.939,65.531 340.062,65.531 "/>
<path style="fill:#E8655A;" d="M284.731,10.199h-57.46c-30.559,0-55.332,24.773-55.332,55.332l0,0h168.124l0,0
	C340.062,34.972,315.29,10.199,284.731,10.199z"/>
<g>
	<path style="fill:#603813;" d="M430.509,350.079H295.994V221.508h9.486c4.726,0,8.834-3.246,9.924-7.845l34.582-145.778
		c0,0,0-0.022,0-0.033c0.174-0.747,0.275-1.522,0.275-2.321C350.262,29.397,320.864,0,284.731,0h-57.46
		c-36.134,0-65.531,29.397-65.531,65.531c0,0.8,0.101,1.575,0.275,2.321c0,0.01,0,0.033,0,0.033l34.582,145.778
		c1.09,4.599,5.198,7.845,9.924,7.845h9.486v128.572H81.492c-27.333,0-49.57,22.237-49.57,49.57v48.947
		c0,5.633,4.566,10.199,10.199,10.199h33.428v43.004c0,5.633,4.566,10.199,10.199,10.199h340.503
		c5.633,0,10.199-4.566,10.199-10.199v-43.005h33.428c5.633,0,10.199-4.566,10.199-10.199V399.65
		C480.078,372.317,457.841,350.079,430.509,350.079z M227.27,20.398h57.46c21.381,0,39.335,14.942,43.97,34.933h-145.4
		C187.935,35.34,205.89,20.398,227.27,20.398z M214.584,201.11L184.841,75.73h142.32l-29.743,125.38H214.584z M236.406,221.508
		h39.189v128.572h-39.189L236.406,221.508L236.406,221.508z M416.053,491.602H95.949v-32.806h320.105v32.806H416.053z
		 M430.509,370.478c16.085,0,29.172,13.087,29.172,29.172v38.748H52.321V399.65c0-16.085,13.087-29.172,29.172-29.172H430.509z"/>
	<path style="fill:#603813;" d="M271.961,406.476H76.172c-5.633,0-10.199,4.566-10.199,10.199c0,5.633,4.566,10.199,10.199,10.199
		h195.789c5.633,0,10.199-4.566,10.199-10.199C282.16,411.042,277.594,406.476,271.961,406.476z"/>
	<path style="fill:#603813;" d="M313.461,406.476h-7.448c-5.633,0-10.199,4.566-10.199,10.199c0,5.633,4.566,10.199,10.199,10.199
		h7.448c5.633,0,10.199-4.566,10.199-10.199C323.66,411.042,319.094,406.476,313.461,406.476z"/>
</g>
<g>
</g>
<g>
</g>
<g>
</g>
<g>
</g>
<g>
</g>
<g>
</g>
<g>
</g>
<g>
</g>
<g>
</g>
<g>
</g>
<g>
</g>
<g>
</g>
<g>
</g>
<g>
</g>
<g>
</g>
</svg>
